<?xml version="1.0" encoding="utf-8"?>
<!-- (c) ammap.com | SVG map of France Departments - High -->
<svg xmlns="http://www.w3.org/2000/svg" xmlns:amcharts="http://amcharts.com/ammap" xmlns:xlink="http://www.w3.org/1999/xlink" version="1.1">
	<defs>
		<style type="text/css">
			.land
			{
				fill: #CCCCCC;
				fill-opacity: 1;
				stroke:white;
				stroke-opacity: 1;
				stroke-width:0.5;
			}
		</style>

		<amcharts:ammap projection="mercator" leftLongitude="-5.181900" topLatitude="51.089515" rightLongitude="9.560929" bottomLatitude="41.366975"></amcharts:ammap>

		<!-- All areas are listed in the line below. You can use this list in your script. -->
		<!--{id:"FR-01"},{id:"FR-02"},{id:"FR-03"},{id:"FR-04"},{id:"FR-05"},{id:"FR-06"},{id:"FR-07"},{id:"FR-08"},{id:"FR-09"},{id:"FR-10"},{id:"FR-11"},{id:"FR-12"},{id:"FR-13"},{id:"FR-14"},{id:"FR-15"},{id:"FR-16"},{id:"FR-17"},{id:"FR-18"},{id:"FR-19"},{id:"FR-2A"},{id:"FR-2B"},{id:"FR-21"},{id:"FR-22"},{id:"FR-23"},{id:"FR-24"},{id:"FR-25"},{id:"FR-26"},{id:"FR-27"},{id:"FR-28"},{id:"FR-29"},{id:"FR-30"},{id:"FR-31"},{id:"FR-32"},{id:"FR-33"},{id:"FR-34"},{id:"FR-35"},{id:"FR-36"},{id:"FR-37"},{id:"FR-38"},{id:"FR-39"},{id:"FR-40"},{id:"FR-41"},{id:"FR-42"},{id:"FR-43"},{id:"FR-44"},{id:"FR-45"},{id:"FR-46"},{id:"FR-47"},{id:"FR-48"},{id:"FR-49"},{id:"FR-50"},{id:"FR-51"},{id:"FR-52"},{id:"FR-53"},{id:"FR-54"},{id:"FR-55"},{id:"FR-56"},{id:"FR-57"},{id:"FR-58"},{id:"FR-59"},{id:"FR-60"},{id:"FR-61"},{id:"FR-62"},{id:"FR-63"},{id:"FR-64"},{id:"FR-65"},{id:"FR-66"},{id:"FR-67"},{id:"FR-68"},{id:"FR-69"},{id:"FR-70"},{id:"FR-71"},{id:"FR-72"},{id:"FR-73"},{id:"FR-74"},{id:"FR-75"},{id:"FR-76"},{id:"FR-77"},{id:"FR-78"},{id:"FR-79"},{id:"FR-80"},{id:"FR-81"},{id:"FR-82"},{id:"FR-83"},{id:"FR-84"},{id:"FR-85"},{id:"FR-86"},{id:"FR-87"},{id:"FR-88"},{id:"FR-89"},{id:"FR-90"},{id:"FR-91"},{id:"FR-92"},{id:"FR-93"},{id:"FR-94"},{id:"FR-95"}-->

	</defs>
	<g>
		<path id="FR-22" title="Côtes-d'Armor" class="land" d="M90.94,143.24l-0.83,1.71l-0.08,-1.33L90.94,143.24zM81.25,143.01l0.35,2.02l5.31,-1.91l-0.46,2.25l1.21,-0.18l-0.63,0.84l3.06,-0.19l0.32,1.47l-1.74,0.92l2.78,1.44l1.16,-0.61l0.76,0.88l-0.51,2.32l5.32,4.52l-0.2,3.35l4.49,2.47l-0.08,2.28l1.26,1.32l0.14,-2.14l2.11,0.39l3.21,-4.6l3.36,-1.43l-0.62,-1.41l2.13,-0.48l0.79,1.27l4.14,-3.52l1.32,1.58l-2.09,2.71l0.96,0.63l2.93,-2.15l-0.51,0.53l1.87,3.06l-0.31,1.34l0.9,-2.83l0.7,2.17l1.19,-2.62l1.04,1.14l0,0l1.32,1.86l1.96,0.34l0.07,1.41l1.54,-1.56l0,0l1.46,1.45l-0.46,2.79l1.35,-2.44l0,0l0.88,-0.74l0.54,0.88l0.29,3.37l-1.74,2.43l0.98,5.94l-1.66,0.29l0.44,3.16l-0.7,-0.6l-2.02,1.28l-1.28,-1.03l-2.38,1.44l0.68,0.54l-0.48,0.89l-1.88,-0.61l-1.32,0.73l0.04,2.42l-1.89,-0.04l-0.29,4.16l-1.46,-0.43l-0.67,1.02l0,0l-2.57,0.53l-0.35,0.92l-2.77,-3.88l-4.61,1.01l0.88,1.5l-1.41,3.54l-4.49,2.74l-0.69,-1.92l0.96,-2.16l-0.43,-2.03l-1.8,1.11l-2.11,-0.23l-0.8,1.83l-1.27,-3.59l-1.93,0.19l-1.67,-1.43l-2.13,-0.4l-2.38,0.68l-0.64,-2.33l-0.92,-0.37l-3.23,-0.19L84.77,187l-2.15,-0.04l-0.91,1.4l-1.14,-0.56l-1.28,0.7l-0.73,-0.89l-1.47,0.24l-0.45,-1.28l-3.38,1.55l-0.87,-0.86l0.79,-0.84l-1.08,-0.91l-1.02,0.7l-3.96,-0.62l0,0l1.91,-0.26l-1.59,-2.1l1.61,-3.56l-1.43,-0.96l1.45,-1.25l-1.39,0.09l-0.15,-3.91L65.46,173l0.14,-1.98l2.12,-1.64l-2.31,-1.95l0.08,-1.13l2.73,-2.6l-1.37,-1.29l-0.98,0.22l0.27,-1.7l-2.17,-0.81l-0.74,-3.97l0,0l1.47,-1.72l0.88,1.08l1.42,-0.87l-0.65,-2.62l1.45,-1.35l-1.48,-0.71l0,-2.07l0.73,-0.33l-0.83,0.04l0.32,-0.75l1.03,0.92l0.81,-0.65l-0.25,-1.31l1.53,-1.04l-0.07,0.91l0.97,-0.79l0.98,1.37l1.29,-0.33l-0.53,1.43l1.77,-0.13l0.37,-0.97l2.87,-1.42l2.36,0.25L81.25,143.01z"/>
		<path id="FR-29" title="Finistère" class="land" d="M2.78,168.42l1.57,1.49l-2.76,1.41l-0.72,-0.11l0.88,-1.1l-1.73,0.47L2.78,168.42zM49.78,152l0.76,0.16l-0.2,2.77l1.12,0.83l0.79,-0.41l-0.1,-1.72l0.59,1.8l2.32,-0.25l0.37,0.85l-0.37,-1.82l0.98,-1.57l0.45,0.86l-0.1,-1.16l1.56,1.18l2.62,-0.33l0.97,1.05l2.28,-0.43l-0.61,2.33l0,0l0.74,3.97l2.17,0.81l-0.27,1.7l0.98,-0.22l1.37,1.29l-2.73,2.6l-0.08,1.13l2.31,1.95l-2.12,1.64L65.46,173l2.06,0.63l0.15,3.91l1.39,-0.09l-1.45,1.25l1.43,0.96l-1.61,3.56l1.59,2.1l-1.91,0.26l0,0l-6.21,2.77l-0.83,1.91l0.07,0.96l1.55,0.12L61.14,193l1.45,0.5l1.44,4.62l4.48,-0.25l1.69,0.85l0.96,1.82l2.1,-1.75l1.04,0.99l0.22,1.98l-1.35,1.29l0.85,2.6l-2.06,-0.04l-0.36,1.67l-1.38,0.8l-1.56,-1.35l-0.25,5.07l0,0l-6.17,-0.86l-1.85,-1.73l-1.43,0.9l-3.85,-0.02l-2.68,-4.06l0.48,-0.48l-1.98,-1.88l-1.4,0.7l0.6,1.78l-2.74,0.61l-2.7,-1.66l-1.69,0.91l-1.86,3.72l-7.31,0.01l-0.54,-1.5l1.23,-0.5l0.12,-1.42l-3.03,-6.84l-3.94,-2.7l-1.36,-0.34l-0.67,0.73l-2.79,-1.78l-2.69,0.17l-1.64,-0.81l1.25,-0.28l-0.32,-1.3l6.73,-0.72l0.69,-0.87l2.06,0.21l2.89,-1.25l2.24,-0.15l2.38,1.25l0.66,-0.71l0.67,-3.32l-0.94,-0.32l-0.82,-2.77l-7.18,-1.99l-2.13,4.12l-0.78,-0.04l0.27,-2.45l-0.83,-1.53l1.2,-0.91l-3.16,-0.93l-0.37,-0.97l2.43,-0.16l-0.07,-3.02l1.63,-0.64L26,178.37l0.85,1.16l0.7,-0.72l0.66,0.92l3.48,-0.83l0.85,1.21l3.78,-1.44l1.48,0.11l0.44,1l1.62,-2.09l-1.13,0.7l-3.67,-0.78l1.45,-1.07l-1.1,-1.43l-1.59,0.63l-0.28,1.1L31.77,177l0.39,-0.9l-2.1,0.78l2.41,-3.53l-0.98,-0.78l-0.53,0.89l-1.97,-0.05l-5.13,2.74l-3.06,-1.06l-1.1,1.49l-2.71,0.13l-0.63,-2.31l1.1,-0.75l-1.4,-2.18l1.42,-3.36l-0.64,-2.96l1.03,-1.8l1.66,-0.64l0.33,-1.01l3.87,-0.41l0.27,-1.63l1.67,0.29l-0.22,-1.41l1.14,-0.23l-0.02,-0.81l2.69,0.83l1.54,-1.11l1.41,0.18l-1.25,-1l3.79,-1.42l2.04,0.79l-0.66,1.44l0.67,0.5l0.9,-0.98l3.13,-0.2l-0.99,-0.38l1.5,-1.77l3.59,-0.53l1.69,1.2l0.25,-1.86L49.78,152zM48.26,150.17l1.25,0.92l-1.94,-0.14L48.26,150.17z"/>
		<path id="FR-35" title="Ille-et-Vilaine" class="land" d="M127.44,157.11l0.65,0.66l2.04,-0.37l-0.32,0.8l0.91,-0.06l0.08,1.45l1.41,1.28l-0.44,1.02l0,0l-1.54,1.56l-0.07,-1.41l-1.96,-0.34l-1.32,-1.86l0,0l-1.11,-2.1L127.44,157.11zM138.57,153.19l0.35,1.66l-1.52,2.1l1.49,2.04l5.63,0.34l5.33,-1.66l0,0l3.46,9.09l1.58,0.12l1.21,1.64l2.8,-0.5l1.05,-1.87l2.05,-0.66l1.05,-2.15l7.63,2.23l0,0l-0.46,5.85l1.49,5.35l-2.35,4.09l2.13,10.7l1.22,1.36l-0.5,2.28l0.7,1.78l-1.38,1.17l-3.08,-0.14l-0.07,0.95l-1.22,0.39l-0.89,4.12l-0.82,0.48l0.37,1.4l-1.43,0.99l0.07,1.95l-0.75,0.63l0,0l-0.36,2.05l0,0l-4.84,-1.39l-1.03,-1.79l-3.76,-0.44l0.24,1.99l-6.19,2.43l-1.49,3.29l-1.49,-0.17l-1.15,0.93l-5.75,-0.67l-3.94,2.29l-0.76,-1.38l-5.19,3.85l0,0l-1.29,-5.65l0.76,-0.36l0,0l0.17,-0.5l0,0l2.05,-0.11l-0.15,-0.79l-2.74,-1.18l0,0h0.63l0,0l3.2,-3.87l-0.77,-2.19l-1.41,1.6l-0.93,-0.33l0.58,-0.81l-0.79,-1.8l1.53,-1.78l-2.75,-3.97l-1.22,0.28l-2.64,-1.25l-2.13,0.53l1.05,-3.01l0.82,-0.83l2.27,0.02l0.85,-1.44l-2.15,-0.33l-1.47,1.11l0.07,-2.73l-1.38,-1.69l0,0l0.67,-1.02l1.46,0.43l0.29,-4.16l1.89,0.04l-0.04,-2.42l1.32,-0.73l1.88,0.61l0.48,-0.89l-0.68,-0.54l2.38,-1.44l1.28,1.03l2.02,-1.28l0.7,0.6l-0.44,-3.16l1.66,-0.29l-0.98,-5.94l1.74,-2.43l-0.29,-3.37l-0.54,-0.88l-0.88,0.74l0,0l-0.58,0.14l-0.89,-2.99l1.38,0.32l-2.45,-1.54l0.44,-0.71l-1.29,-1.21l0.1,-1.05l1.68,-0.85l0.1,-1.27l1.71,0.13l-0.53,-0.41l1.01,-0.82l1.23,0.78L138.57,153.19z"/>
		<path id="FR-56" title="Morbihan" class="land" d="M80.29,234.83l3.75,1.43l0.73,2.13l3.24,0.92l-0.56,1.7l-0.73,0.52l-3.41,-1.45l-1.82,0.54l-0.82,-0.61l-1.01,-2.95L80.29,234.83zM67.12,185.58l3.96,0.62l1.02,-0.7l1.08,0.91l-0.79,0.84l0.87,0.86l3.38,-1.55l0.45,1.28l1.47,-0.24l0.73,0.89l1.28,-0.7l1.14,0.56l0.91,-1.4l2.15,0.04l1.03,-2.66l3.23,0.19l0.92,0.37l0.64,2.33l2.38,-0.68l2.13,0.4l1.67,1.43l1.93,-0.19l1.27,3.59l0.8,-1.83l2.11,0.23l1.8,-1.11l0.43,2.03l-0.96,2.16l0.69,1.92l4.49,-2.74l1.41,-3.54l-0.88,-1.5l4.61,-1.01l2.77,3.88l0.35,-0.92l2.57,-0.53l0,0l1.38,1.69l-0.07,2.73l1.47,-1.11l2.15,0.33l-0.85,1.44l-2.27,-0.02l-0.82,0.83l-1.05,3.01l2.13,-0.53l2.64,1.25l1.22,-0.28l2.75,3.97l-1.53,1.78l0.79,1.8l-0.58,0.81l0.93,0.33l1.41,-1.6l0.77,2.19l-3.2,3.87l0,0h-0.63l0,0l2.74,1.18l0.15,0.79l-2.05,0.11l0,0l-0.17,0.5l0,0l-0.76,0.36l1.29,5.65l0,0l0.69,1.22l-0.8,1.06l0.11,3.76l-2.46,0.69l-0.26,1.95l-1.06,-0.32l0.17,-1.08l-2.49,1.11l-0.59,-1.19l-1.63,-0.13l-0.78,3.38l-3.5,0.29l-0.9,-1.27l-1.43,1.77l0,0l-1.56,-0.12l-0.26,-2.58l2.52,-0.38l-2.85,-1.59l-4.67,1.23l-0.36,-0.94l-1.1,0.08l-1,1.29l-1.87,-0.54l-3.71,1.21l-1.43,-0.73l-0.99,-2.13l-1.29,-0.1l-0.27,-1.13l-2.2,-0.21l-1.05,-1.41l-0.63,0.81l-0.84,-1.58l0.04,1.2l-4.13,0.2l-0.46,2.3l1.83,3.61h-1.69l-1.18,-3.07l0.86,-1.21l-0.81,-3.91l-5.1,-4.73l-2.41,-0.73l-0.9,0.58l-0.2,-1.52l-3.96,0.74l-3.04,-3.97l0,0l0.25,-5.07l1.56,1.35l1.38,-0.8l0.36,-1.67l2.06,0.04l-0.85,-2.6l1.35,-1.29l-0.22,-1.98l-1.04,-0.99l-2.1,1.75l-0.96,-1.82l-1.69,-0.85l-4.48,0.25l-1.44,-4.62l-1.45,-0.5l0.56,-1.65l-1.55,-0.12l-0.07,-0.96l0.83,-1.91L67.12,185.58z"/>
		<path id="FR-95" title="Val-d'Oise" class="land" d="M285.85,120.07L286.26,119.49L287.35,120.55L286.3,121.67L287.42,123.28L289.99,123.01L290.35,123.76L291.37,123.55L291.31,124.35L296.11,123.96L297.15,123.12L298.23,123.61L301.51,121.43L302.15,122.71L303.5,122.48L303.81,123.41L304.29,122.81L305.23,124.39L307.22,123.39L307.58,125.14L310,124.63L311.17,122.94L312.99,125.37L313.71,124.63L316.41,125.46L316.17,126.28L317.24,125.81L319.06,127.27L318.5,127.99L320.24,128.4L321.15,126.86L321.31,128.48L322.65,129.65L322.65,129.65L321.77,130.85L322.8,131.71L320.79,133.22L321.01,133.96L321.01,133.96L318.5,136.69L316.39,137.61L313.35,136.4L312.06,137.41L310.51,136.86L309.85,137.88L309.85,137.88L306.49,140.49L306.49,140.49L306.65,137.78L305.38,137.64L304.99,135.71L303.13,135.22L303.15,133.61L299.11,134.84L297.82,133.35L295.56,133.34L294.32,131.69L293,133.62L291.97,132.62L292.58,131.11L291.11,129.89L286.66,131.89L284.58,129.78L281.9,129.82L281.9,129.82L283.93,126.4L284.62,121.36z"/>
	</g>
</svg>